<svg width="16" height="14" viewBox="0 0 16 14" fill="none" xmlns="http://www.w3.org/2000/svg">
<path d="M7.05625 13.5157L6.97813 13.4433L1.50312 8.32068C0.54375 7.42336 0 6.16396 0 4.84474V4.74084C0 2.5243 1.5625 0.622609 3.725 0.207008C4.95625 -0.0322778 6.21562 0.254235 7.21875 0.965795C7.5 1.1673 7.7625 1.40029 8 1.66791C8.13125 1.51678 8.27188 1.37825 8.42188 1.24916C8.5375 1.14841 8.65625 1.05395 8.78125 0.965795C9.78438 0.254235 11.0437 -0.0322778 12.275 0.203859C14.4375 0.619461 16 2.5243 16 4.74084V4.84474C16 6.16396 15.4563 7.42336 14.4969 8.32068L9.02188 13.4433L8.94375 13.5157C8.6875 13.755 8.35 13.8904 8 13.8904C7.65 13.8904 7.3125 13.7581 7.05625 13.5157ZM7.47188 3.33976C7.45938 3.33032 7.45 3.31772 7.44063 3.30513L6.88438 2.67543L6.88125 2.67228C6.15937 1.85682 5.06875 1.4853 4.00625 1.68995C2.55 1.97017 1.5 3.24846 1.5 4.74084V4.84474C1.5 5.74206 1.87188 6.6016 2.525 7.21241L8 12.335L13.475 7.21241C14.1281 6.6016 14.5 5.74206 14.5 4.84474V4.74084C14.5 3.2516 13.45 1.97017 11.9969 1.68995C10.9344 1.4853 9.84062 1.85997 9.12187 2.67228C9.12187 2.67228 9.12187 2.67228 9.11875 2.67543C9.11562 2.67858 9.11875 2.67543 9.11563 2.67858L8.55937 3.30828C8.55 3.32087 8.5375 3.33032 8.52812 3.34291C8.3875 3.48459 8.19687 3.56331 8 3.56331C7.80312 3.56331 7.6125 3.48459 7.47188 3.34291V3.33976Z" fill="black"/>
</svg>
