<svg width="15" height="12" viewBox="0 0 15 12" fill="none" xmlns="http://www.w3.org/2000/svg">
<path d="M1.08 0.923889C0.48375 0.923889 0 1.37077 0 1.92157V8.57277C0 9.12357 0.48375 9.57045 1.08 9.57045H1.44C1.44 10.6721 2.4075 11.5658 3.6 11.5658C4.7925 11.5658 5.76 10.6721 5.76 9.57045H8.64C8.64 10.6721 9.6075 11.5658 10.8 11.5658C11.9925 11.5658 12.96 10.6721 12.96 9.57045H13.68C14.0783 9.57045 14.4 9.27322 14.4 8.90533C14.4 8.53743 14.0783 8.24021 13.68 8.24021V6.90997V6.24485V5.85617C13.68 5.50282 13.5293 5.16403 13.2593 4.91461L11.52 3.30793C11.25 3.05851 10.8833 2.91925 10.5008 2.91925H9.36V1.92157C9.36 1.37077 8.87625 0.923889 8.28 0.923889H1.08ZM9.36 4.24949H10.5008L12.24 5.85617V6.24485H9.36V4.24949ZM2.52 9.57045C2.52 9.30585 2.63379 9.05208 2.83632 8.86498C3.03886 8.67788 3.31357 8.57277 3.6 8.57277C3.88643 8.57277 4.16114 8.67788 4.36368 8.86498C4.56622 9.05208 4.68 9.30585 4.68 9.57045C4.68 9.83505 4.56622 10.0888 4.36368 10.2759C4.16114 10.463 3.88643 10.5681 3.6 10.5681C3.31357 10.5681 3.03886 10.463 2.83632 10.2759C2.63379 10.0888 2.52 9.83505 2.52 9.57045ZM10.8 8.57277C11.0864 8.57277 11.3611 8.67788 11.5637 8.86498C11.7662 9.05208 11.88 9.30585 11.88 9.57045C11.88 9.83505 11.7662 10.0888 11.5637 10.2759C11.3611 10.463 11.0864 10.5681 10.8 10.5681C10.5136 10.5681 10.2389 10.463 10.0363 10.2759C9.83379 10.0888 9.72 9.83505 9.72 9.57045C9.72 9.30585 9.83379 9.05208 10.0363 8.86498C10.2389 8.67788 10.5136 8.57277 10.8 8.57277Z" fill="white"/>
</svg>
